<svg width="32"  height="32" viewBox="0 0 32 32" fill="none" xmlns="http://www.w3.org/2000/svg">
<path d="M19.3333 12.6667H27.2733C27.8414 12.6667 28.4001 12.8119 28.8963 13.0885C29.3925 13.3652 29.8098 13.764 30.1085 14.2473C30.4073 14.7305 30.5775 15.2821 30.6032 15.8496C30.6288 16.4171 30.5089 16.9818 30.255 17.49L24.4217 29.1567C24.1448 29.7108 23.719 30.1768 23.192 30.5024C22.665 30.828 22.0578 31.0003 21.4383 31H14.7433C14.4717 31 14.2 30.9667 13.935 30.9L7.66667 29.3333M19.3333 12.6667V4.33333C19.3333 3.44928 18.9821 2.60143 18.357 1.97631C17.7319 1.35119 16.8841 1 16 1H15.8417C15.0083 1 14.3333 1.675 14.3333 2.50833C14.3333 3.69833 13.9817 4.86167 13.32 5.85167L7.66667 14.3333V29.3333M19.3333 12.6667H16M7.66667 29.3333H4.33333C3.44928 29.3333 2.60143 28.9821 1.97631 28.357C1.35119 27.7319 1 26.8841 1 26V16C1 15.1159 1.35119 14.2681 1.97631 13.643C2.60143 13.0179 3.44928 12.6667 4.33333 12.6667H8.5" stroke="#374151" stroke-width="2" stroke-linecap="round" stroke-linejoin="round"/>
</svg>
